<svg width="24" height="24" viewBox="0 0 24 24" fill="none" xmlns="http://www.w3.org/2000/svg">
<g clip-path="url(#clip0_12_15)">
<path d="M25.54 6.29446C24.6567 6.69598 23.7045 6.95985 22.7179 7.08604C23.7274 6.47801 24.5075 5.51434 24.8746 4.35564C23.9225 4.92925 22.867 5.33078 21.7542 5.56023C20.8479 4.57361 19.5745 4 18.129 4C15.433 4 13.2303 6.20268 13.2303 8.92161C13.2303 9.31166 13.2762 9.69025 13.3565 10.0459C9.27235 9.83939 5.63564 7.87763 3.21499 4.90631C2.79052 5.62906 2.5496 6.47801 2.5496 7.37285C2.5496 9.08222 3.41002 10.5966 4.7408 11.457C3.92627 11.457 3.1691 11.2275 2.50371 10.8834V10.9178C2.50371 13.304 4.20161 15.3002 6.45017 15.7476C5.72825 15.9452 4.97036 15.9727 4.23602 15.8279C4.54762 16.8059 5.15786 17.6617 5.98098 18.2749C6.80409 18.8881 7.79868 19.2279 8.82493 19.2467C7.08531 20.6238 4.92895 21.3682 2.71021 21.3576C2.32015 21.3576 1.9301 21.3346 1.54004 21.2887C3.71977 22.6883 6.31251 23.5029 9.0888 23.5029C18.129 23.5029 23.0964 16 23.0964 9.49522C23.0964 9.27725 23.0964 9.07075 23.085 8.85277C24.0486 8.16444 24.8746 7.29254 25.54 6.29446Z" fill="white"/>
</g>
<defs>
<clipPath id="clip0_12_15">
<rect width="24" height="24" fill="white"/>
</clipPath>
</defs>
</svg>
